<?xml version="1.0" encoding="UTF-8" standalone="no"?>
<!DOCTYPE svg PUBLIC "-//W3C//DTD SVG 1.1//EN"
 "http://www.w3.org/Graphics/SVG/1.1/DTD/svg11.dtd">
<!-- Generated by graphviz version 2.40.1 (20161225.0304)
 -->
<!-- Title: dependencies Pages: 1 -->
<svg width="738pt" height="211pt"
 viewBox="0.00 0.00 738.00 211.00" xmlns="http://www.w3.org/2000/svg" xmlns:xlink="http://www.w3.org/1999/xlink">
<g id="graph0" class="graph" transform="scale(1 1) rotate(0) translate(4 207)">
<title>dependencies</title>
<polygon fill="#ffffff" stroke="transparent" points="-4,4 -4,-207 734,-207 734,4 -4,4"/>
<text text-anchor="start" x="344.0091" y="-42.4" font-family="sans-serif" font-weight="bold" font-size="14.00" fill="#000000">Legend</text>
<polygon fill="#ffffb3" stroke="transparent" points="131,-10 131,-30 151,-30 151,-10 131,-10"/>
<text text-anchor="start" x="154.629" y="-15.4" font-family="sans-serif" font-size="14.00" fill="#000000"> &#160;Declarations</text>
<polygon fill="#8dd3c7" stroke="transparent" points="244,-10 244,-30 264,-30 264,-10 244,-10"/>
<text text-anchor="start" x="267.7251" y="-15.4" font-family="sans-serif" font-size="14.00" fill="#000000"> &#160;Module</text>
<polygon fill="#80b1d3" stroke="transparent" points="330,-10 330,-30 350,-30 350,-10 330,-10"/>
<text text-anchor="start" x="353.7812" y="-15.4" font-family="sans-serif" font-size="14.00" fill="#000000"> &#160;Bootstrap</text>
<polygon fill="#fdb462" stroke="transparent" points="427,-10 427,-30 447,-30 447,-10 427,-10"/>
<text text-anchor="start" x="450.6732" y="-15.4" font-family="sans-serif" font-size="14.00" fill="#000000"> &#160;Providers</text>
<polygon fill="#fb8072" stroke="transparent" points="523,-10 523,-30 543,-30 543,-10 523,-10"/>
<text text-anchor="start" x="546.7258" y="-15.4" font-family="sans-serif" font-size="14.00" fill="#000000"> &#160;Exports</text>
<g id="clust1" class="cluster">
<title>cluster_MessageModule</title>
<polygon fill="none" stroke="#000000" stroke-dasharray="1,5" points="8,-70 8,-195 722,-195 722,-70 8,-70"/>
</g>
<g id="clust2" class="cluster">
<title>cluster_MessageModule_declarations</title>
<polygon fill="none" stroke="#000000" points="194,-78 194,-130 714,-130 714,-78 194,-78"/>
</g>
<g id="clust6" class="cluster">
<title>cluster_MessageModule_imports</title>
<polygon fill="none" stroke="#000000" points="16,-78 16,-130 186,-130 186,-78 16,-78"/>
</g>
<!-- MessageDetailComponent -->
<g id="node1" class="node">
<title>MessageDetailComponent</title>
<polygon fill="#ffffb3" stroke="#000000" points="706.0183,-122 541.9817,-122 541.9817,-86 706.0183,-86 706.0183,-122"/>
<text text-anchor="middle" x="624" y="-99.8" font-family="Times,serif" font-size="14.00" fill="#000000">MessageDetailComponent</text>
</g>
<!-- MessageModule -->
<g id="node4" class="node">
<title>MessageModule</title>
<polygon fill="#8dd3c7" stroke="#000000" points="409.0284,-187 406.0284,-191 385.0284,-191 382.0284,-187 300.9716,-187 300.9716,-151 409.0284,-151 409.0284,-187"/>
<text text-anchor="middle" x="355" y="-164.8" font-family="Times,serif" font-size="14.00" fill="#000000">MessageModule</text>
</g>
<!-- MessageDetailComponent&#45;&gt;MessageModule -->
<g id="edge1" class="edge">
<title>MessageDetailComponent&#45;&gt;MessageModule</title>
<path fill="none" stroke="#000000" d="M624,-122.1061C624,-141.3391 624,-169 624,-169 624,-169 419.1126,-169 419.1126,-169"/>
<polygon fill="#000000" stroke="#000000" points="419.1126,-165.5001 409.1126,-169 419.1125,-172.5001 419.1126,-165.5001"/>
</g>
<!-- MessageSearchComponent -->
<g id="node2" class="node">
<title>MessageSearchComponent</title>
<polygon fill="#ffffb3" stroke="#000000" points="524.3975,-122 355.6025,-122 355.6025,-86 524.3975,-86 524.3975,-122"/>
<text text-anchor="middle" x="440" y="-99.8" font-family="Times,serif" font-size="14.00" fill="#000000">MessageSearchComponent</text>
</g>
<!-- MessageSearchComponent&#45;&gt;MessageModule -->
<g id="edge2" class="edge">
<title>MessageSearchComponent&#45;&gt;MessageModule</title>
<path fill="none" stroke="#000000" d="M382.5326,-122.1061C382.5326,-122.1061 382.5326,-140.991 382.5326,-140.991"/>
<polygon fill="#000000" stroke="#000000" points="379.0327,-140.9909 382.5326,-150.991 386.0327,-140.991 379.0327,-140.9909"/>
</g>
<!-- MessagesComponent -->
<g id="node3" class="node">
<title>MessagesComponent</title>
<polygon fill="#ffffb3" stroke="#000000" points="337.7548,-122 202.2452,-122 202.2452,-86 337.7548,-86 337.7548,-122"/>
<text text-anchor="middle" x="270" y="-99.8" font-family="Times,serif" font-size="14.00" fill="#000000">MessagesComponent</text>
</g>
<!-- MessagesComponent&#45;&gt;MessageModule -->
<g id="edge3" class="edge">
<title>MessagesComponent&#45;&gt;MessageModule</title>
<path fill="none" stroke="#000000" d="M319.3068,-122.1061C319.3068,-122.1061 319.3068,-140.991 319.3068,-140.991"/>
<polygon fill="#000000" stroke="#000000" points="315.8069,-140.9909 319.3068,-150.991 322.8069,-140.991 315.8069,-140.9909"/>
</g>
<!-- MessageRoutingModule -->
<g id="node5" class="node">
<title>MessageRoutingModule</title>
<polygon fill="#8dd3c7" stroke="#000000" points="177.6456,-122 174.6456,-126 153.6456,-126 150.6456,-122 24.3544,-122 24.3544,-86 177.6456,-86 177.6456,-122"/>
<text text-anchor="middle" x="101" y="-99.8" font-family="Times,serif" font-size="14.00" fill="#000000">MessageRoutingModule</text>
</g>
<!-- MessageRoutingModule&#45;&gt;MessageModule -->
<g id="edge4" class="edge">
<title>MessageRoutingModule&#45;&gt;MessageModule</title>
<path fill="none" stroke="#000000" d="M101,-122.1061C101,-141.3391 101,-169 101,-169 101,-169 290.8222,-169 290.8222,-169"/>
<polygon fill="#000000" stroke="#000000" points="290.8222,-172.5001 300.8222,-169 290.8221,-165.5001 290.8222,-172.5001"/>
</g>
</g>
</svg>
