<?xml version="1.0" encoding="UTF-8" standalone="no"?>
<!DOCTYPE svg PUBLIC "-//W3C//DTD SVG 1.1//EN"
 "http://www.w3.org/Graphics/SVG/1.1/DTD/svg11.dtd">
<!-- Generated by graphviz version 2.40.1 (20161225.0304)
 -->
<!-- Title: dependencies Pages: 1 -->
<svg width="1055pt" height="284pt"
 viewBox="0.00 0.00 1055.00 284.00" xmlns="http://www.w3.org/2000/svg" xmlns:xlink="http://www.w3.org/1999/xlink">
<g id="graph0" class="graph" transform="scale(1 1) rotate(0) translate(4 280)">
<title>dependencies</title>
<polygon fill="#ffffff" stroke="transparent" points="-4,4 -4,-280 1051,-280 1051,4 -4,4"/>
<text text-anchor="start" x="502.5091" y="-42.4" font-family="sans-serif" font-weight="bold" font-size="14.00" fill="#000000">Legend</text>
<polygon fill="#ffffb3" stroke="transparent" points="289.5,-10 289.5,-30 309.5,-30 309.5,-10 289.5,-10"/>
<text text-anchor="start" x="313.129" y="-15.4" font-family="sans-serif" font-size="14.00" fill="#000000"> &#160;Declarations</text>
<polygon fill="#8dd3c7" stroke="transparent" points="402.5,-10 402.5,-30 422.5,-30 422.5,-10 402.5,-10"/>
<text text-anchor="start" x="426.2251" y="-15.4" font-family="sans-serif" font-size="14.00" fill="#000000"> &#160;Module</text>
<polygon fill="#80b1d3" stroke="transparent" points="488.5,-10 488.5,-30 508.5,-30 508.5,-10 488.5,-10"/>
<text text-anchor="start" x="512.2812" y="-15.4" font-family="sans-serif" font-size="14.00" fill="#000000"> &#160;Bootstrap</text>
<polygon fill="#fdb462" stroke="transparent" points="585.5,-10 585.5,-30 605.5,-30 605.5,-10 585.5,-10"/>
<text text-anchor="start" x="609.1732" y="-15.4" font-family="sans-serif" font-size="14.00" fill="#000000"> &#160;Providers</text>
<polygon fill="#fb8072" stroke="transparent" points="681.5,-10 681.5,-30 701.5,-30 701.5,-10 681.5,-10"/>
<text text-anchor="start" x="705.2258" y="-15.4" font-family="sans-serif" font-size="14.00" fill="#000000"> &#160;Exports</text>
<g id="clust1" class="cluster">
<title>cluster_HomeModule</title>
<polygon fill="none" stroke="#000000" stroke-dasharray="1,5" points="8,-70 8,-268 1039,-268 1039,-70 8,-70"/>
</g>
<g id="clust2" class="cluster">
<title>cluster_HomeModule_declarations</title>
<polygon fill="none" stroke="#000000" points="178,-78 178,-130 1031,-130 1031,-78 178,-78"/>
</g>
<g id="clust8" class="cluster">
<title>cluster_HomeModule_imports</title>
<polygon fill="none" stroke="#000000" points="16,-78 16,-130 170,-130 170,-78 16,-78"/>
</g>
<g id="clust9" class="cluster">
<title>cluster_HomeModule_exports</title>
<polygon fill="none" stroke="#000000" points="463,-208 463,-260 599,-260 599,-208 463,-208"/>
</g>
<!-- CourseWidgetComponent -->
<g id="node1" class="node">
<title>CourseWidgetComponent</title>
<polygon fill="#ffffb3" stroke="#000000" points="1023.1993,-122 860.8007,-122 860.8007,-86 1023.1993,-86 1023.1993,-122"/>
<text text-anchor="middle" x="942" y="-99.8" font-family="Times,serif" font-size="14.00" fill="#000000">CourseWidgetComponent</text>
</g>
<!-- HomeModule -->
<g id="node6" class="node">
<title>HomeModule</title>
<polygon fill="#8dd3c7" stroke="#000000" points="577.7619,-187 574.7619,-191 553.7619,-191 550.7619,-187 484.2381,-187 484.2381,-151 577.7619,-151 577.7619,-187"/>
<text text-anchor="middle" x="531" y="-164.8" font-family="Times,serif" font-size="14.00" fill="#000000">HomeModule</text>
</g>
<!-- CourseWidgetComponent&#45;&gt;HomeModule -->
<g id="edge1" class="edge">
<title>CourseWidgetComponent&#45;&gt;HomeModule</title>
<path fill="none" stroke="#000000" d="M942,-122.2843C942,-143.3211 942,-175 942,-175 942,-175 588.1469,-175 588.1469,-175"/>
<polygon fill="#000000" stroke="#000000" points="588.147,-171.5001 578.1469,-175 588.1469,-178.5001 588.147,-171.5001"/>
</g>
<!-- HomeComponent -->
<g id="node2" class="node">
<title>HomeComponent</title>
<polygon fill="#ffffb3" stroke="#000000" points="842.5451,-122 727.4549,-122 727.4549,-86 842.5451,-86 842.5451,-122"/>
<text text-anchor="middle" x="785" y="-99.8" font-family="Times,serif" font-size="14.00" fill="#000000">HomeComponent</text>
</g>
<!-- HomeComponent&#45;&gt;HomeModule -->
<g id="edge2" class="edge">
<title>HomeComponent&#45;&gt;HomeModule</title>
<path fill="none" stroke="#000000" d="M785,-122.0225C785,-139.3734 785,-163 785,-163 785,-163 587.8835,-163 587.8835,-163"/>
<polygon fill="#000000" stroke="#000000" points="587.8836,-159.5001 577.8835,-163 587.8835,-166.5001 587.8836,-159.5001"/>
</g>
<!-- MessageWidgetComponent -->
<g id="node3" class="node">
<title>MessageWidgetComponent</title>
<polygon fill="#ffffb3" stroke="#000000" points="708.5211,-122 537.4789,-122 537.4789,-86 708.5211,-86 708.5211,-122"/>
<text text-anchor="middle" x="623" y="-99.8" font-family="Times,serif" font-size="14.00" fill="#000000">MessageWidgetComponent</text>
</g>
<!-- MessageWidgetComponent&#45;&gt;HomeModule -->
<g id="edge3" class="edge">
<title>MessageWidgetComponent&#45;&gt;HomeModule</title>
<path fill="none" stroke="#000000" d="M557.5603,-122.1061C557.5603,-122.1061 557.5603,-140.991 557.5603,-140.991"/>
<polygon fill="#000000" stroke="#000000" points="554.0604,-140.9909 557.5603,-150.991 561.0604,-140.991 554.0604,-140.9909"/>
</g>
<!-- PrayerWidgetComponent -->
<g id="node4" class="node">
<title>PrayerWidgetComponent</title>
<polygon fill="#ffffb3" stroke="#000000" points="519.5758,-122 360.4242,-122 360.4242,-86 519.5758,-86 519.5758,-122"/>
<text text-anchor="middle" x="440" y="-99.8" font-family="Times,serif" font-size="14.00" fill="#000000">PrayerWidgetComponent</text>
</g>
<!-- PrayerWidgetComponent&#45;&gt;HomeModule -->
<g id="edge4" class="edge">
<title>PrayerWidgetComponent&#45;&gt;HomeModule</title>
<path fill="none" stroke="#000000" d="M501.8285,-122.1061C501.8285,-122.1061 501.8285,-140.991 501.8285,-140.991"/>
<polygon fill="#000000" stroke="#000000" points="498.3286,-140.9909 501.8285,-150.991 505.3286,-140.991 498.3286,-140.9909"/>
</g>
<!-- TodaysBreadComponent -->
<g id="node5" class="node">
<title>TodaysBreadComponent</title>
<polygon fill="#ffffb3" stroke="#000000" points="341.9706,-122 186.0294,-122 186.0294,-86 341.9706,-86 341.9706,-122"/>
<text text-anchor="middle" x="264" y="-99.8" font-family="Times,serif" font-size="14.00" fill="#000000">TodaysBreadComponent</text>
</g>
<!-- TodaysBreadComponent&#45;&gt;HomeModule -->
<g id="edge5" class="edge">
<title>TodaysBreadComponent&#45;&gt;HomeModule</title>
<path fill="none" stroke="#000000" d="M264,-122.0225C264,-139.3734 264,-163 264,-163 264,-163 474.1866,-163 474.1866,-163"/>
<polygon fill="#000000" stroke="#000000" points="474.1867,-166.5001 484.1866,-163 474.1866,-159.5001 474.1867,-166.5001"/>
</g>
<!-- HomeComponent  -->
<g id="node8" class="node">
<title>HomeComponent </title>
<polygon fill="#fb8072" stroke="#000000" points="590.5442,-252 471.4558,-252 471.4558,-216 590.5442,-216 590.5442,-252"/>
<text text-anchor="middle" x="531" y="-229.8" font-family="Times,serif" font-size="14.00" fill="#000000">HomeComponent </text>
</g>
<!-- HomeModule&#45;&gt;HomeComponent  -->
<g id="edge7" class="edge">
<title>HomeModule&#45;&gt;HomeComponent </title>
<path fill="none" stroke="#000000" stroke-dasharray="5,2" d="M531,-187.1061C531,-187.1061 531,-205.991 531,-205.991"/>
<polygon fill="#000000" stroke="#000000" points="527.5001,-205.9909 531,-215.991 534.5001,-205.991 527.5001,-205.9909"/>
</g>
<!-- HomeRoutingModule -->
<g id="node7" class="node">
<title>HomeRoutingModule</title>
<polygon fill="#8dd3c7" stroke="#000000" points="162.3795,-122 159.3795,-126 138.3795,-126 135.3795,-122 23.6205,-122 23.6205,-86 162.3795,-86 162.3795,-122"/>
<text text-anchor="middle" x="93" y="-99.8" font-family="Times,serif" font-size="14.00" fill="#000000">HomeRoutingModule</text>
</g>
<!-- HomeRoutingModule&#45;&gt;HomeModule -->
<g id="edge6" class="edge">
<title>HomeRoutingModule&#45;&gt;HomeModule</title>
<path fill="none" stroke="#000000" d="M93,-122.2843C93,-143.3211 93,-175 93,-175 93,-175 474.1263,-175 474.1263,-175"/>
<polygon fill="#000000" stroke="#000000" points="474.1264,-178.5001 484.1263,-175 474.1263,-171.5001 474.1264,-178.5001"/>
</g>
</g>
</svg>
