<?xml version="1.0" encoding="UTF-8" standalone="no"?>
<!DOCTYPE svg PUBLIC "-//W3C//DTD SVG 1.1//EN"
 "http://www.w3.org/Graphics/SVG/1.1/DTD/svg11.dtd">
<!-- Generated by graphviz version 2.40.1 (20161225.0304)
 -->
<!-- Title: dependencies Pages: 1 -->
<svg width="945pt" height="284pt"
 viewBox="0.00 0.00 945.00 284.00" xmlns="http://www.w3.org/2000/svg" xmlns:xlink="http://www.w3.org/1999/xlink">
<g id="graph0" class="graph" transform="scale(1 1) rotate(0) translate(4 280)">
<title>dependencies</title>
<polygon fill="#ffffff" stroke="transparent" points="-4,4 -4,-280 941,-280 941,4 -4,4"/>
<text text-anchor="start" x="447.5091" y="-42.4" font-family="sans-serif" font-weight="bold" font-size="14.00" fill="#000000">Legend</text>
<polygon fill="#ffffb3" stroke="transparent" points="234.5,-10 234.5,-30 254.5,-30 254.5,-10 234.5,-10"/>
<text text-anchor="start" x="258.129" y="-15.4" font-family="sans-serif" font-size="14.00" fill="#000000"> &#160;Declarations</text>
<polygon fill="#8dd3c7" stroke="transparent" points="347.5,-10 347.5,-30 367.5,-30 367.5,-10 347.5,-10"/>
<text text-anchor="start" x="371.2251" y="-15.4" font-family="sans-serif" font-size="14.00" fill="#000000"> &#160;Module</text>
<polygon fill="#80b1d3" stroke="transparent" points="433.5,-10 433.5,-30 453.5,-30 453.5,-10 433.5,-10"/>
<text text-anchor="start" x="457.2812" y="-15.4" font-family="sans-serif" font-size="14.00" fill="#000000"> &#160;Bootstrap</text>
<polygon fill="#fdb462" stroke="transparent" points="530.5,-10 530.5,-30 550.5,-30 550.5,-10 530.5,-10"/>
<text text-anchor="start" x="554.1732" y="-15.4" font-family="sans-serif" font-size="14.00" fill="#000000"> &#160;Providers</text>
<polygon fill="#fb8072" stroke="transparent" points="626.5,-10 626.5,-30 646.5,-30 646.5,-10 626.5,-10"/>
<text text-anchor="start" x="650.2258" y="-15.4" font-family="sans-serif" font-size="14.00" fill="#000000"> &#160;Exports</text>
<g id="clust1" class="cluster">
<title>cluster_SharedModule</title>
<polygon fill="none" stroke="#000000" stroke-dasharray="1,5" points="8,-70 8,-268 929,-268 929,-70 8,-70"/>
</g>
<g id="clust2" class="cluster">
<title>cluster_SharedModule_declarations</title>
<polygon fill="none" stroke="#000000" points="16,-78 16,-130 921,-130 921,-78 16,-78"/>
</g>
<g id="clust10" class="cluster">
<title>cluster_SharedModule_exports</title>
<polygon fill="none" stroke="#000000" points="75,-208 75,-260 862,-260 862,-208 75,-208"/>
</g>
<!-- ControlMessagesComponent -->
<g id="node1" class="node">
<title>ControlMessagesComponent</title>
<polygon fill="#ffffb3" stroke="#000000" points="913.0336,-122 734.9664,-122 734.9664,-86 913.0336,-86 913.0336,-122"/>
<text text-anchor="middle" x="824" y="-99.8" font-family="Times,serif" font-size="14.00" fill="#000000">ControlMessagesComponent</text>
</g>
<!-- SharedModule -->
<g id="node7" class="node">
<title>SharedModule</title>
<polygon fill="#8dd3c7" stroke="#000000" points="432.4231,-187 429.4231,-191 408.4231,-191 405.4231,-187 333.5769,-187 333.5769,-151 432.4231,-151 432.4231,-187"/>
<text text-anchor="middle" x="383" y="-164.8" font-family="Times,serif" font-size="14.00" fill="#000000">SharedModule</text>
</g>
<!-- ControlMessagesComponent&#45;&gt;SharedModule -->
<g id="edge1" class="edge">
<title>ControlMessagesComponent&#45;&gt;SharedModule</title>
<path fill="none" stroke="#000000" d="M794.375,-122.1061C794.375,-141.3391 794.375,-169 794.375,-169 794.375,-169 442.2128,-169 442.2128,-169"/>
<polygon fill="#000000" stroke="#000000" points="442.2129,-165.5001 432.2128,-169 442.2128,-172.5001 442.2129,-165.5001"/>
</g>
<!-- FooterComponent -->
<g id="node2" class="node">
<title>FooterComponent</title>
<polygon fill="#ffffb3" stroke="#000000" points="716.8809,-122 599.1191,-122 599.1191,-86 716.8809,-86 716.8809,-122"/>
<text text-anchor="middle" x="658" y="-99.8" font-family="Times,serif" font-size="14.00" fill="#000000">FooterComponent</text>
</g>
<!-- FooterComponent&#45;&gt;SharedModule -->
<g id="edge2" class="edge">
<title>FooterComponent&#45;&gt;SharedModule</title>
<path fill="none" stroke="#000000" d="M626.375,-122.0225C626.375,-139.3734 626.375,-163 626.375,-163 626.375,-163 442.2506,-163 442.2506,-163"/>
<polygon fill="#000000" stroke="#000000" points="442.2506,-159.5001 432.2506,-163 442.2505,-166.5001 442.2506,-159.5001"/>
</g>
<!-- ModalComponent -->
<g id="node3" class="node">
<title>ModalComponent</title>
<polygon fill="#ffffb3" stroke="#000000" points="580.8823,-122 463.1177,-122 463.1177,-86 580.8823,-86 580.8823,-122"/>
<text text-anchor="middle" x="522" y="-99.8" font-family="Times,serif" font-size="14.00" fill="#000000">ModalComponent</text>
</g>
<!-- ModalComponent&#45;&gt;SharedModule -->
<g id="edge3" class="edge">
<title>ModalComponent&#45;&gt;SharedModule</title>
<path fill="none" stroke="#000000" d="M488.9283,-122.2396C488.9283,-137.5706 488.9283,-157 488.9283,-157 488.9283,-157 442.2428,-157 442.2428,-157"/>
<polygon fill="#000000" stroke="#000000" points="442.2429,-153.5001 432.2428,-157 442.2428,-160.5001 442.2429,-153.5001"/>
</g>
<!-- SidebarComponent -->
<g id="node4" class="node">
<title>SidebarComponent</title>
<polygon fill="#ffffb3" stroke="#000000" points="445.0954,-122 320.9046,-122 320.9046,-86 445.0954,-86 445.0954,-122"/>
<text text-anchor="middle" x="383" y="-99.8" font-family="Times,serif" font-size="14.00" fill="#000000">SidebarComponent</text>
</g>
<!-- SidebarComponent&#45;&gt;SharedModule -->
<g id="edge4" class="edge">
<title>SidebarComponent&#45;&gt;SharedModule</title>
<path fill="none" stroke="#000000" d="M383,-122.1061C383,-122.1061 383,-140.991 383,-140.991"/>
<polygon fill="#000000" stroke="#000000" points="379.5001,-140.9909 383,-150.991 386.5001,-140.991 379.5001,-140.9909"/>
</g>
<!-- SpinnerComponent -->
<g id="node5" class="node">
<title>SpinnerComponent</title>
<polygon fill="#ffffb3" stroke="#000000" points="303.3809,-122 178.6191,-122 178.6191,-86 303.3809,-86 303.3809,-122"/>
<text text-anchor="middle" x="241" y="-99.8" font-family="Times,serif" font-size="14.00" fill="#000000">SpinnerComponent</text>
</g>
<!-- SpinnerComponent&#45;&gt;SharedModule -->
<g id="edge5" class="edge">
<title>SpinnerComponent&#45;&gt;SharedModule</title>
<path fill="none" stroke="#000000" d="M272.125,-122.2396C272.125,-137.5706 272.125,-157 272.125,-157 272.125,-157 323.7229,-157 323.7229,-157"/>
<polygon fill="#000000" stroke="#000000" points="323.723,-160.5001 333.7229,-157 323.7229,-153.5001 323.723,-160.5001"/>
</g>
<!-- TopMenuComponent -->
<g id="node6" class="node">
<title>TopMenuComponent</title>
<polygon fill="#ffffb3" stroke="#000000" points="160.045,-122 23.955,-122 23.955,-86 160.045,-86 160.045,-122"/>
<text text-anchor="middle" x="92" y="-99.8" font-family="Times,serif" font-size="14.00" fill="#000000">TopMenuComponent</text>
</g>
<!-- TopMenuComponent&#45;&gt;SharedModule -->
<g id="edge6" class="edge">
<title>TopMenuComponent&#45;&gt;SharedModule</title>
<path fill="none" stroke="#000000" d="M108.7426,-122.1061C108.7426,-141.3391 108.7426,-169 108.7426,-169 108.7426,-169 323.6515,-169 323.6515,-169"/>
<polygon fill="#000000" stroke="#000000" points="323.6516,-172.5001 333.6515,-169 323.6515,-165.5001 323.6516,-172.5001"/>
</g>
<!-- TopMenuComponent&#45;&gt;SharedModule -->
<g id="edge7" class="edge">
<title>TopMenuComponent&#45;&gt;SharedModule</title>
<path fill="none" stroke="#000000" d="M134.5074,-122.0225C134.5074,-139.3734 134.5074,-163 134.5074,-163 134.5074,-163 323.6088,-163 323.6088,-163"/>
<polygon fill="#000000" stroke="#000000" points="323.6088,-166.5001 333.6088,-163 323.6087,-159.5001 323.6088,-166.5001"/>
</g>
<!-- ControlMessagesComponent  -->
<g id="node8" class="node">
<title>ControlMessagesComponent </title>
<polygon fill="#fb8072" stroke="#000000" points="854.033,-252 671.967,-252 671.967,-216 854.033,-216 854.033,-252"/>
<text text-anchor="middle" x="763" y="-229.8" font-family="Times,serif" font-size="14.00" fill="#000000">ControlMessagesComponent </text>
</g>
<!-- SharedModule&#45;&gt;ControlMessagesComponent  -->
<g id="edge8" class="edge">
<title>SharedModule&#45;&gt;ControlMessagesComponent </title>
<path fill="none" stroke="#000000" stroke-dasharray="5,2" d="M432.3521,-175C520.1759,-175 694.462,-175 694.462,-175 694.462,-175 694.462,-205.9775 694.462,-205.9775"/>
<polygon fill="#000000" stroke="#000000" points="690.962,-205.9774 694.462,-215.9775 697.962,-205.9775 690.962,-205.9774"/>
</g>
<!-- FooterComponent  -->
<g id="node9" class="node">
<title>FooterComponent </title>
<polygon fill="#fb8072" stroke="#000000" points="653.8814,-252 532.1186,-252 532.1186,-216 653.8814,-216 653.8814,-252"/>
<text text-anchor="middle" x="593" y="-229.8" font-family="Times,serif" font-size="14.00" fill="#000000">FooterComponent </text>
</g>
<!-- SharedModule&#45;&gt;FooterComponent  -->
<g id="edge9" class="edge">
<title>SharedModule&#45;&gt;FooterComponent </title>
<path fill="none" stroke="#000000" stroke-dasharray="5,2" d="M432.2896,-181C483.6209,-181 556.6254,-181 556.6254,-181 556.6254,-181 556.6254,-205.7604 556.6254,-205.7604"/>
<polygon fill="#000000" stroke="#000000" points="553.1254,-205.7604 556.6254,-215.7604 560.1254,-205.7604 553.1254,-205.7604"/>
</g>
<!-- SidebarComponent  -->
<g id="node10" class="node">
<title>SidebarComponent </title>
<polygon fill="#fb8072" stroke="#000000" points="514.596,-252 387.404,-252 387.404,-216 514.596,-216 514.596,-252"/>
<text text-anchor="middle" x="451" y="-229.8" font-family="Times,serif" font-size="14.00" fill="#000000">SidebarComponent </text>
</g>
<!-- SharedModule&#45;&gt;SidebarComponent  -->
<g id="edge10" class="edge">
<title>SharedModule&#45;&gt;SidebarComponent </title>
<path fill="none" stroke="#000000" stroke-dasharray="5,2" d="M409.7067,-187.1061C409.7067,-187.1061 409.7067,-205.991 409.7067,-205.991"/>
<polygon fill="#000000" stroke="#000000" points="406.2068,-205.9909 409.7067,-215.991 413.2068,-205.991 406.2068,-205.9909"/>
</g>
<!-- SpinnerComponent  -->
<g id="node11" class="node">
<title>SpinnerComponent </title>
<polygon fill="#fb8072" stroke="#000000" points="369.3814,-252 240.6186,-252 240.6186,-216 369.3814,-216 369.3814,-252"/>
<text text-anchor="middle" x="305" y="-229.8" font-family="Times,serif" font-size="14.00" fill="#000000">SpinnerComponent </text>
</g>
<!-- SharedModule&#45;&gt;SpinnerComponent  -->
<g id="edge11" class="edge">
<title>SharedModule&#45;&gt;SpinnerComponent </title>
<path fill="none" stroke="#000000" stroke-dasharray="5,2" d="M351.4897,-187.1061C351.4897,-187.1061 351.4897,-205.991 351.4897,-205.991"/>
<polygon fill="#000000" stroke="#000000" points="347.9897,-205.9909 351.4897,-215.991 354.9897,-205.991 347.9897,-205.9909"/>
</g>
<!-- TopMenuComponent  -->
<g id="node12" class="node">
<title>TopMenuComponent </title>
<polygon fill="#fb8072" stroke="#000000" points="223.0442,-252 82.9558,-252 82.9558,-216 223.0442,-216 223.0442,-252"/>
<text text-anchor="middle" x="153" y="-229.8" font-family="Times,serif" font-size="14.00" fill="#000000">TopMenuComponent </text>
</g>
<!-- SharedModule&#45;&gt;TopMenuComponent  -->
<g id="edge12" class="edge">
<title>SharedModule&#45;&gt;TopMenuComponent </title>
<path fill="none" stroke="#000000" stroke-dasharray="5,2" d="M333.3773,-181C281.6991,-181 208.2013,-181 208.2013,-181 208.2013,-181 208.2013,-205.7604 208.2013,-205.7604"/>
<polygon fill="#000000" stroke="#000000" points="204.7014,-205.7604 208.2013,-215.7604 211.7014,-205.7604 204.7014,-205.7604"/>
</g>
<!-- SharedModule&#45;&gt;TopMenuComponent  -->
<g id="edge13" class="edge">
<title>SharedModule&#45;&gt;TopMenuComponent </title>
<path fill="none" stroke="#000000" stroke-dasharray="5,2" d="M333.6747,-175C277.4913,-175 193.3804,-175 193.3804,-175 193.3804,-175 193.3804,-205.9775 193.3804,-205.9775"/>
<polygon fill="#000000" stroke="#000000" points="189.8805,-205.9774 193.3804,-215.9775 196.8805,-205.9775 189.8805,-205.9774"/>
</g>
</g>
</svg>
