<?xml version="1.0" encoding="UTF-8" standalone="no"?>
<!DOCTYPE svg PUBLIC "-//W3C//DTD SVG 1.1//EN"
 "http://www.w3.org/Graphics/SVG/1.1/DTD/svg11.dtd">
<!-- Generated by graphviz version 2.40.1 (20161225.0304)
 -->
<!-- Title: dependencies Pages: 1 -->
<svg width="545pt" height="211pt"
 viewBox="0.00 0.00 545.00 211.00" xmlns="http://www.w3.org/2000/svg" xmlns:xlink="http://www.w3.org/1999/xlink">
<g id="graph0" class="graph" transform="scale(1 1) rotate(0) translate(4 207)">
<title>dependencies</title>
<polygon fill="#ffffff" stroke="transparent" points="-4,4 -4,-207 541,-207 541,4 -4,4"/>
<text text-anchor="start" x="247.5091" y="-42.4" font-family="sans-serif" font-weight="bold" font-size="14.00" fill="#000000">Legend</text>
<polygon fill="#ffffb3" stroke="transparent" points="34.5,-10 34.5,-30 54.5,-30 54.5,-10 34.5,-10"/>
<text text-anchor="start" x="58.129" y="-15.4" font-family="sans-serif" font-size="14.00" fill="#000000"> &#160;Declarations</text>
<polygon fill="#8dd3c7" stroke="transparent" points="147.5,-10 147.5,-30 167.5,-30 167.5,-10 147.5,-10"/>
<text text-anchor="start" x="171.2251" y="-15.4" font-family="sans-serif" font-size="14.00" fill="#000000"> &#160;Module</text>
<polygon fill="#80b1d3" stroke="transparent" points="233.5,-10 233.5,-30 253.5,-30 253.5,-10 233.5,-10"/>
<text text-anchor="start" x="257.2812" y="-15.4" font-family="sans-serif" font-size="14.00" fill="#000000"> &#160;Bootstrap</text>
<polygon fill="#fdb462" stroke="transparent" points="330.5,-10 330.5,-30 350.5,-30 350.5,-10 330.5,-10"/>
<text text-anchor="start" x="354.1732" y="-15.4" font-family="sans-serif" font-size="14.00" fill="#000000"> &#160;Providers</text>
<polygon fill="#fb8072" stroke="transparent" points="426.5,-10 426.5,-30 446.5,-30 446.5,-10 426.5,-10"/>
<text text-anchor="start" x="450.2258" y="-15.4" font-family="sans-serif" font-size="14.00" fill="#000000"> &#160;Exports</text>
<g id="clust1" class="cluster">
<title>cluster_ContactModule</title>
<polygon fill="none" stroke="#000000" stroke-dasharray="1,5" points="8,-70 8,-195 529,-195 529,-70 8,-70"/>
</g>
<g id="clust2" class="cluster">
<title>cluster_ContactModule_declarations</title>
<polygon fill="none" stroke="#000000" points="16,-78 16,-130 521,-130 521,-78 16,-78"/>
</g>
<!-- ContactDetailComponent -->
<g id="node1" class="node">
<title>ContactDetailComponent</title>
<polygon fill="#ffffb3" stroke="#000000" points="512.587,-122 353.413,-122 353.413,-86 512.587,-86 512.587,-122"/>
<text text-anchor="middle" x="433" y="-99.8" font-family="Times,serif" font-size="14.00" fill="#000000">ContactDetailComponent</text>
</g>
<!-- ContactModule -->
<g id="node4" class="node">
<title>ContactModule</title>
<polygon fill="#8dd3c7" stroke="#000000" points="305.5968,-187 302.5968,-191 281.5968,-191 278.5968,-187 202.4032,-187 202.4032,-151 305.5968,-151 305.5968,-187"/>
<text text-anchor="middle" x="254" y="-164.8" font-family="Times,serif" font-size="14.00" fill="#000000">ContactModule</text>
</g>
<!-- ContactDetailComponent&#45;&gt;ContactModule -->
<g id="edge1" class="edge">
<title>ContactDetailComponent&#45;&gt;ContactModule</title>
<path fill="none" stroke="#000000" d="M433,-122.1061C433,-141.3391 433,-169 433,-169 433,-169 315.7742,-169 315.7742,-169"/>
<polygon fill="#000000" stroke="#000000" points="315.7743,-165.5001 305.7742,-169 315.7742,-172.5001 315.7743,-165.5001"/>
</g>
<!-- ContactSearchComponent -->
<g id="node2" class="node">
<title>ContactSearchComponent</title>
<polygon fill="#ffffb3" stroke="#000000" points="335.4664,-122 172.5336,-122 172.5336,-86 335.4664,-86 335.4664,-122"/>
<text text-anchor="middle" x="254" y="-99.8" font-family="Times,serif" font-size="14.00" fill="#000000">ContactSearchComponent</text>
</g>
<!-- ContactSearchComponent&#45;&gt;ContactModule -->
<g id="edge2" class="edge">
<title>ContactSearchComponent&#45;&gt;ContactModule</title>
<path fill="none" stroke="#000000" d="M254,-122.1061C254,-122.1061 254,-140.991 254,-140.991"/>
<polygon fill="#000000" stroke="#000000" points="250.5001,-140.9909 254,-150.991 257.5001,-140.991 250.5001,-140.9909"/>
</g>
<!-- ContactsComponent -->
<g id="node3" class="node">
<title>ContactsComponent</title>
<polygon fill="#ffffb3" stroke="#000000" points="154.3244,-122 23.6756,-122 23.6756,-86 154.3244,-86 154.3244,-122"/>
<text text-anchor="middle" x="89" y="-99.8" font-family="Times,serif" font-size="14.00" fill="#000000">ContactsComponent</text>
</g>
<!-- ContactsComponent&#45;&gt;ContactModule -->
<g id="edge3" class="edge">
<title>ContactsComponent&#45;&gt;ContactModule</title>
<path fill="none" stroke="#000000" d="M89,-122.1061C89,-141.3391 89,-169 89,-169 89,-169 192.2457,-169 192.2457,-169"/>
<polygon fill="#000000" stroke="#000000" points="192.2457,-172.5001 202.2457,-169 192.2456,-165.5001 192.2457,-172.5001"/>
</g>
</g>
</svg>
