<?xml version="1.0" encoding="UTF-8" standalone="no"?>
<!DOCTYPE svg PUBLIC "-//W3C//DTD SVG 1.1//EN"
 "http://www.w3.org/Graphics/SVG/1.1/DTD/svg11.dtd">
<!-- Generated by graphviz version 2.40.1 (20161225.0304)
 -->
<!-- Title: dependencies Pages: 1 -->
<svg width="600pt" height="211pt"
 viewBox="0.00 0.00 600.00 211.00" xmlns="http://www.w3.org/2000/svg" xmlns:xlink="http://www.w3.org/1999/xlink">
<g id="graph0" class="graph" transform="scale(1 1) rotate(0) translate(4 207)">
<title>dependencies</title>
<polygon fill="#ffffff" stroke="transparent" points="-4,4 -4,-207 596,-207 596,4 -4,4"/>
<text text-anchor="start" x="275.0091" y="-42.4" font-family="sans-serif" font-weight="bold" font-size="14.00" fill="#000000">Legend</text>
<polygon fill="#ffffb3" stroke="transparent" points="62,-10 62,-30 82,-30 82,-10 62,-10"/>
<text text-anchor="start" x="85.629" y="-15.4" font-family="sans-serif" font-size="14.00" fill="#000000"> &#160;Declarations</text>
<polygon fill="#8dd3c7" stroke="transparent" points="175,-10 175,-30 195,-30 195,-10 175,-10"/>
<text text-anchor="start" x="198.7251" y="-15.4" font-family="sans-serif" font-size="14.00" fill="#000000"> &#160;Module</text>
<polygon fill="#80b1d3" stroke="transparent" points="261,-10 261,-30 281,-30 281,-10 261,-10"/>
<text text-anchor="start" x="284.7812" y="-15.4" font-family="sans-serif" font-size="14.00" fill="#000000"> &#160;Bootstrap</text>
<polygon fill="#fdb462" stroke="transparent" points="358,-10 358,-30 378,-30 378,-10 358,-10"/>
<text text-anchor="start" x="381.6732" y="-15.4" font-family="sans-serif" font-size="14.00" fill="#000000"> &#160;Providers</text>
<polygon fill="#fb8072" stroke="transparent" points="454,-10 454,-30 474,-30 474,-10 454,-10"/>
<text text-anchor="start" x="477.7258" y="-15.4" font-family="sans-serif" font-size="14.00" fill="#000000"> &#160;Exports</text>
<g id="clust1" class="cluster">
<title>cluster_DailyBreadModule</title>
<polygon fill="none" stroke="#000000" stroke-dasharray="1,5" points="8,-70 8,-195 584,-195 584,-70 8,-70"/>
</g>
<g id="clust2" class="cluster">
<title>cluster_DailyBreadModule_declarations</title>
<polygon fill="none" stroke="#000000" points="210,-78 210,-130 576,-130 576,-78 210,-78"/>
</g>
<g id="clust5" class="cluster">
<title>cluster_DailyBreadModule_imports</title>
<polygon fill="none" stroke="#000000" points="16,-78 16,-130 202,-130 202,-78 16,-78"/>
</g>
<!-- DailyBreadDetailComponent -->
<g id="node1" class="node">
<title>DailyBreadDetailComponent</title>
<polygon fill="#ffffb3" stroke="#000000" points="568.0688,-122 387.9312,-122 387.9312,-86 568.0688,-86 568.0688,-122"/>
<text text-anchor="middle" x="478" y="-99.8" font-family="Times,serif" font-size="14.00" fill="#000000">DailyBreadDetailComponent</text>
</g>
<!-- DailyBreadModule -->
<g id="node3" class="node">
<title>DailyBreadModule</title>
<polygon fill="#8dd3c7" stroke="#000000" points="356.0786,-187 353.0786,-191 332.0786,-191 329.0786,-187 231.9214,-187 231.9214,-151 356.0786,-151 356.0786,-187"/>
<text text-anchor="middle" x="294" y="-164.8" font-family="Times,serif" font-size="14.00" fill="#000000">DailyBreadModule</text>
</g>
<!-- DailyBreadDetailComponent&#45;&gt;DailyBreadModule -->
<g id="edge1" class="edge">
<title>DailyBreadDetailComponent&#45;&gt;DailyBreadModule</title>
<path fill="none" stroke="#000000" d="M478,-122.1061C478,-141.3391 478,-169 478,-169 478,-169 366.294,-169 366.294,-169"/>
<polygon fill="#000000" stroke="#000000" points="366.294,-165.5001 356.294,-169 366.294,-172.5001 366.294,-165.5001"/>
</g>
<!-- DailyBreadsComponent -->
<g id="node2" class="node">
<title>DailyBreadsComponent</title>
<polygon fill="#ffffb3" stroke="#000000" points="369.8061,-122 218.1939,-122 218.1939,-86 369.8061,-86 369.8061,-122"/>
<text text-anchor="middle" x="294" y="-99.8" font-family="Times,serif" font-size="14.00" fill="#000000">DailyBreadsComponent</text>
</g>
<!-- DailyBreadsComponent&#45;&gt;DailyBreadModule -->
<g id="edge2" class="edge">
<title>DailyBreadsComponent&#45;&gt;DailyBreadModule</title>
<path fill="none" stroke="#000000" d="M294,-122.1061C294,-122.1061 294,-140.991 294,-140.991"/>
<polygon fill="#000000" stroke="#000000" points="290.5001,-140.9909 294,-150.991 297.5001,-140.991 290.5001,-140.9909"/>
</g>
<!-- DailyBreadRoutingModule -->
<g id="node4" class="node">
<title>DailyBreadRoutingModule</title>
<polygon fill="#8dd3c7" stroke="#000000" points="193.6965,-122 190.6965,-126 169.6965,-126 166.6965,-122 24.3035,-122 24.3035,-86 193.6965,-86 193.6965,-122"/>
<text text-anchor="middle" x="109" y="-99.8" font-family="Times,serif" font-size="14.00" fill="#000000">DailyBreadRoutingModule</text>
</g>
<!-- DailyBreadRoutingModule&#45;&gt;DailyBreadModule -->
<g id="edge3" class="edge">
<title>DailyBreadRoutingModule&#45;&gt;DailyBreadModule</title>
<path fill="none" stroke="#000000" d="M109,-122.1061C109,-141.3391 109,-169 109,-169 109,-169 221.883,-169 221.883,-169"/>
<polygon fill="#000000" stroke="#000000" points="221.8831,-172.5001 231.883,-169 221.883,-165.5001 221.8831,-172.5001"/>
</g>
</g>
</svg>
