<?xml version="1.0" encoding="UTF-8" standalone="no"?>
<!DOCTYPE svg PUBLIC "-//W3C//DTD SVG 1.1//EN"
 "http://www.w3.org/Graphics/SVG/1.1/DTD/svg11.dtd">
<!-- Generated by graphviz version 2.40.1 (20161225.0304)
 -->
<!-- Title: dependencies Pages: 1 -->
<svg width="701pt" height="211pt"
 viewBox="0.00 0.00 701.00 211.00" xmlns="http://www.w3.org/2000/svg" xmlns:xlink="http://www.w3.org/1999/xlink">
<g id="graph0" class="graph" transform="scale(1 1) rotate(0) translate(4 207)">
<title>dependencies</title>
<polygon fill="#ffffff" stroke="transparent" points="-4,4 -4,-207 697,-207 697,4 -4,4"/>
<text text-anchor="start" x="325.5091" y="-42.4" font-family="sans-serif" font-weight="bold" font-size="14.00" fill="#000000">Legend</text>
<polygon fill="#ffffb3" stroke="transparent" points="112.5,-10 112.5,-30 132.5,-30 132.5,-10 112.5,-10"/>
<text text-anchor="start" x="136.129" y="-15.4" font-family="sans-serif" font-size="14.00" fill="#000000"> &#160;Declarations</text>
<polygon fill="#8dd3c7" stroke="transparent" points="225.5,-10 225.5,-30 245.5,-30 245.5,-10 225.5,-10"/>
<text text-anchor="start" x="249.2251" y="-15.4" font-family="sans-serif" font-size="14.00" fill="#000000"> &#160;Module</text>
<polygon fill="#80b1d3" stroke="transparent" points="311.5,-10 311.5,-30 331.5,-30 331.5,-10 311.5,-10"/>
<text text-anchor="start" x="335.2812" y="-15.4" font-family="sans-serif" font-size="14.00" fill="#000000"> &#160;Bootstrap</text>
<polygon fill="#fdb462" stroke="transparent" points="408.5,-10 408.5,-30 428.5,-30 428.5,-10 408.5,-10"/>
<text text-anchor="start" x="432.1732" y="-15.4" font-family="sans-serif" font-size="14.00" fill="#000000"> &#160;Providers</text>
<polygon fill="#fb8072" stroke="transparent" points="504.5,-10 504.5,-30 524.5,-30 524.5,-10 504.5,-10"/>
<text text-anchor="start" x="528.2258" y="-15.4" font-family="sans-serif" font-size="14.00" fill="#000000"> &#160;Exports</text>
<g id="clust1" class="cluster">
<title>cluster_CourseModule</title>
<polygon fill="none" stroke="#000000" stroke-dasharray="1,5" points="8,-70 8,-195 685,-195 685,-70 8,-70"/>
</g>
<g id="clust2" class="cluster">
<title>cluster_CourseModule_declarations</title>
<polygon fill="none" stroke="#000000" points="184,-78 184,-130 677,-130 677,-78 184,-78"/>
</g>
<g id="clust6" class="cluster">
<title>cluster_CourseModule_imports</title>
<polygon fill="none" stroke="#000000" points="16,-78 16,-130 176,-130 176,-78 16,-78"/>
</g>
<!-- CourseDetailComponent -->
<g id="node1" class="node">
<title>CourseDetailComponent</title>
<polygon fill="#ffffb3" stroke="#000000" points="668.6965,-122 513.3035,-122 513.3035,-86 668.6965,-86 668.6965,-122"/>
<text text-anchor="middle" x="591" y="-99.8" font-family="Times,serif" font-size="14.00" fill="#000000">CourseDetailComponent</text>
</g>
<!-- CourseModule -->
<g id="node4" class="node">
<title>CourseModule</title>
<polygon fill="#8dd3c7" stroke="#000000" points="384.7064,-187 381.7064,-191 360.7064,-191 357.7064,-187 285.2936,-187 285.2936,-151 384.7064,-151 384.7064,-187"/>
<text text-anchor="middle" x="335" y="-164.8" font-family="Times,serif" font-size="14.00" fill="#000000">CourseModule</text>
</g>
<!-- CourseDetailComponent&#45;&gt;CourseModule -->
<g id="edge1" class="edge">
<title>CourseDetailComponent&#45;&gt;CourseModule</title>
<path fill="none" stroke="#000000" d="M591,-122.1061C591,-141.3391 591,-169 591,-169 591,-169 394.6629,-169 394.6629,-169"/>
<polygon fill="#000000" stroke="#000000" points="394.663,-165.5001 384.6629,-169 394.6629,-172.5001 394.663,-165.5001"/>
</g>
<!-- CourseSearchComponent -->
<g id="node2" class="node">
<title>CourseSearchComponent</title>
<polygon fill="#ffffb3" stroke="#000000" points="495.5758,-122 336.4242,-122 336.4242,-86 495.5758,-86 495.5758,-122"/>
<text text-anchor="middle" x="416" y="-99.8" font-family="Times,serif" font-size="14.00" fill="#000000">CourseSearchComponent</text>
</g>
<!-- CourseSearchComponent&#45;&gt;CourseModule -->
<g id="edge2" class="edge">
<title>CourseSearchComponent&#45;&gt;CourseModule</title>
<path fill="none" stroke="#000000" d="M360.5326,-122.1061C360.5326,-122.1061 360.5326,-140.991 360.5326,-140.991"/>
<polygon fill="#000000" stroke="#000000" points="357.0327,-140.9909 360.5326,-150.991 364.0327,-140.991 357.0327,-140.9909"/>
</g>
<!-- CoursesComponent -->
<g id="node3" class="node">
<title>CoursesComponent</title>
<polygon fill="#ffffb3" stroke="#000000" points="318.4341,-122 191.5659,-122 191.5659,-86 318.4341,-86 318.4341,-122"/>
<text text-anchor="middle" x="255" y="-99.8" font-family="Times,serif" font-size="14.00" fill="#000000">CoursesComponent</text>
</g>
<!-- CoursesComponent&#45;&gt;CourseModule -->
<g id="edge3" class="edge">
<title>CoursesComponent&#45;&gt;CourseModule</title>
<path fill="none" stroke="#000000" d="M301.8068,-122.1061C301.8068,-122.1061 301.8068,-140.991 301.8068,-140.991"/>
<polygon fill="#000000" stroke="#000000" points="298.3069,-140.9909 301.8068,-150.991 305.3069,-140.991 298.3069,-140.9909"/>
</g>
<!-- CourseRoutingModule -->
<g id="node5" class="node">
<title>CourseRoutingModule</title>
<polygon fill="#8dd3c7" stroke="#000000" points="168.3244,-122 165.3244,-126 144.3244,-126 141.3244,-122 23.6756,-122 23.6756,-86 168.3244,-86 168.3244,-122"/>
<text text-anchor="middle" x="96" y="-99.8" font-family="Times,serif" font-size="14.00" fill="#000000">CourseRoutingModule</text>
</g>
<!-- CourseRoutingModule&#45;&gt;CourseModule -->
<g id="edge4" class="edge">
<title>CourseRoutingModule&#45;&gt;CourseModule</title>
<path fill="none" stroke="#000000" d="M96,-122.1061C96,-141.3391 96,-169 96,-169 96,-169 275.1887,-169 275.1887,-169"/>
<polygon fill="#000000" stroke="#000000" points="275.1887,-172.5001 285.1887,-169 275.1887,-165.5001 275.1887,-172.5001"/>
</g>
</g>
</svg>
