<?xml version="1.0" encoding="UTF-8" standalone="no"?>
<!DOCTYPE svg PUBLIC "-//W3C//DTD SVG 1.1//EN"
 "http://www.w3.org/Graphics/SVG/1.1/DTD/svg11.dtd">
<!-- Generated by graphviz version 2.40.1 (20161225.0304)
 -->
<!-- Title: dependencies Pages: 1 -->
<svg width="1635pt" height="284pt"
 viewBox="0.00 0.00 1635.00 284.00" xmlns="http://www.w3.org/2000/svg" xmlns:xlink="http://www.w3.org/1999/xlink">
<g id="graph0" class="graph" transform="scale(1 1) rotate(0) translate(4 280)">
<title>dependencies</title>
<polygon fill="#ffffff" stroke="transparent" points="-4,4 -4,-280 1631,-280 1631,4 -4,4"/>
<text text-anchor="start" x="792.5091" y="-42.4" font-family="sans-serif" font-weight="bold" font-size="14.00" fill="#000000">Legend</text>
<polygon fill="#ffffb3" stroke="transparent" points="579.5,-10 579.5,-30 599.5,-30 599.5,-10 579.5,-10"/>
<text text-anchor="start" x="603.129" y="-15.4" font-family="sans-serif" font-size="14.00" fill="#000000"> &#160;Declarations</text>
<polygon fill="#8dd3c7" stroke="transparent" points="692.5,-10 692.5,-30 712.5,-30 712.5,-10 692.5,-10"/>
<text text-anchor="start" x="716.2251" y="-15.4" font-family="sans-serif" font-size="14.00" fill="#000000"> &#160;Module</text>
<polygon fill="#80b1d3" stroke="transparent" points="778.5,-10 778.5,-30 798.5,-30 798.5,-10 778.5,-10"/>
<text text-anchor="start" x="802.2812" y="-15.4" font-family="sans-serif" font-size="14.00" fill="#000000"> &#160;Bootstrap</text>
<polygon fill="#fdb462" stroke="transparent" points="875.5,-10 875.5,-30 895.5,-30 895.5,-10 875.5,-10"/>
<text text-anchor="start" x="899.1732" y="-15.4" font-family="sans-serif" font-size="14.00" fill="#000000"> &#160;Providers</text>
<polygon fill="#fb8072" stroke="transparent" points="971.5,-10 971.5,-30 991.5,-30 991.5,-10 971.5,-10"/>
<text text-anchor="start" x="995.2258" y="-15.4" font-family="sans-serif" font-size="14.00" fill="#000000"> &#160;Exports</text>
<g id="clust1" class="cluster">
<title>cluster_AppModule</title>
<polygon fill="none" stroke="#000000" stroke-dasharray="1,5" points="8,-70 8,-268 1619,-268 1619,-70 8,-70"/>
</g>
<g id="clust2" class="cluster">
<title>cluster_AppModule_declarations</title>
<polygon fill="none" stroke="#000000" points="1139,-78 1139,-130 1611,-130 1611,-78 1139,-78"/>
</g>
<g id="clust6" class="cluster">
<title>cluster_AppModule_imports</title>
<polygon fill="none" stroke="#000000" points="16,-78 16,-130 1131,-130 1131,-78 16,-78"/>
</g>
<g id="clust8" class="cluster">
<title>cluster_AppModule_bootstrap</title>
<polygon fill="none" stroke="#000000" points="679,-208 679,-260 803,-260 803,-208 679,-208"/>
</g>
<!-- AppComponent -->
<g id="node1" class="node">
<title>AppComponent</title>
<polygon fill="#ffffb3" stroke="#000000" points="1602.9399,-122 1497.0601,-122 1497.0601,-86 1602.9399,-86 1602.9399,-122"/>
<text text-anchor="middle" x="1550" y="-99.8" font-family="Times,serif" font-size="14.00" fill="#000000">AppComponent</text>
</g>
<!-- AppModule -->
<g id="node4" class="node">
<title>AppModule</title>
<polygon fill="#8dd3c7" stroke="#000000" points="782.6571,-187 779.6571,-191 758.6571,-191 755.6571,-187 699.3429,-187 699.3429,-151 782.6571,-151 782.6571,-187"/>
<text text-anchor="middle" x="741" y="-164.8" font-family="Times,serif" font-size="14.00" fill="#000000">AppModule</text>
</g>
<!-- AppComponent&#45;&gt;AppModule -->
<g id="edge1" class="edge">
<title>AppComponent&#45;&gt;AppModule</title>
<path fill="none" stroke="#000000" d="M1550,-122.2479C1550,-145.0179 1550,-181 1550,-181 1550,-181 792.7918,-181 792.7918,-181"/>
<polygon fill="#000000" stroke="#000000" points="792.7918,-177.5001 782.7918,-181 792.7918,-184.5001 792.7918,-177.5001"/>
</g>
<!-- AuthLayoutComponent -->
<g id="node2" class="node">
<title>AuthLayoutComponent</title>
<polygon fill="#ffffb3" stroke="#000000" points="1479.4874,-122 1330.5126,-122 1330.5126,-86 1479.4874,-86 1479.4874,-122"/>
<text text-anchor="middle" x="1405" y="-99.8" font-family="Times,serif" font-size="14.00" fill="#000000">AuthLayoutComponent</text>
</g>
<!-- AuthLayoutComponent&#45;&gt;AppModule -->
<g id="edge2" class="edge">
<title>AuthLayoutComponent&#45;&gt;AppModule</title>
<path fill="none" stroke="#000000" d="M1405,-122.2843C1405,-143.3211 1405,-175 1405,-175 1405,-175 792.7877,-175 792.7877,-175"/>
<polygon fill="#000000" stroke="#000000" points="792.7877,-171.5001 782.7877,-175 792.7877,-178.5001 792.7877,-171.5001"/>
</g>
<!-- ContentLayoutComponent -->
<g id="node3" class="node">
<title>ContentLayoutComponent</title>
<polygon fill="#ffffb3" stroke="#000000" points="1312.8229,-122 1147.1771,-122 1147.1771,-86 1312.8229,-86 1312.8229,-122"/>
<text text-anchor="middle" x="1230" y="-99.8" font-family="Times,serif" font-size="14.00" fill="#000000">ContentLayoutComponent</text>
</g>
<!-- ContentLayoutComponent&#45;&gt;AppModule -->
<g id="edge3" class="edge">
<title>ContentLayoutComponent&#45;&gt;AppModule</title>
<path fill="none" stroke="#000000" d="M1230,-122.1061C1230,-141.3391 1230,-169 1230,-169 1230,-169 792.6919,-169 792.6919,-169"/>
<polygon fill="#000000" stroke="#000000" points="792.6919,-165.5001 782.6919,-169 792.6918,-172.5001 792.6919,-165.5001"/>
</g>
<!-- AppComponent  -->
<g id="node14" class="node">
<title>AppComponent </title>
<polygon fill="#80b1d3" stroke="#000000" points="795.439,-252 686.561,-252 686.561,-216 795.439,-216 795.439,-252"/>
<text text-anchor="middle" x="741" y="-229.8" font-family="Times,serif" font-size="14.00" fill="#000000">AppComponent </text>
</g>
<!-- AppModule&#45;&gt;AppComponent  -->
<g id="edge13" class="edge">
<title>AppModule&#45;&gt;AppComponent </title>
<path fill="none" stroke="#000000" stroke-dasharray="1,5" d="M741,-187.1061C741,-187.1061 741,-205.991 741,-205.991"/>
<polygon fill="#000000" stroke="#000000" points="737.5001,-205.9909 741,-215.991 744.5001,-205.991 737.5001,-205.9909"/>
</g>
<!-- AppRoutingModule -->
<g id="node5" class="node">
<title>AppRoutingModule</title>
<polygon fill="#8dd3c7" stroke="#000000" points="1123.2744,-122 1120.2744,-126 1099.2744,-126 1096.2744,-122 994.7256,-122 994.7256,-86 1123.2744,-86 1123.2744,-122"/>
<text text-anchor="middle" x="1059" y="-99.8" font-family="Times,serif" font-size="14.00" fill="#000000">AppRoutingModule</text>
</g>
<!-- AppRoutingModule&#45;&gt;AppModule -->
<g id="edge4" class="edge">
<title>AppRoutingModule&#45;&gt;AppModule</title>
<path fill="none" stroke="#000000" d="M1059,-122.0225C1059,-139.3734 1059,-163 1059,-163 1059,-163 792.8999,-163 792.8999,-163"/>
<polygon fill="#000000" stroke="#000000" points="792.9,-159.5001 782.8999,-163 792.8999,-166.5001 792.9,-159.5001"/>
</g>
<!-- ContactModule -->
<g id="node6" class="node">
<title>ContactModule</title>
<polygon fill="#8dd3c7" stroke="#000000" points="976.5968,-122 973.5968,-126 952.5968,-126 949.5968,-122 873.4032,-122 873.4032,-86 976.5968,-86 976.5968,-122"/>
<text text-anchor="middle" x="925" y="-99.8" font-family="Times,serif" font-size="14.00" fill="#000000">ContactModule</text>
</g>
<!-- ContactModule&#45;&gt;AppModule -->
<g id="edge5" class="edge">
<title>ContactModule&#45;&gt;AppModule</title>
<path fill="none" stroke="#000000" d="M925,-122.2396C925,-137.5706 925,-157 925,-157 925,-157 792.7524,-157 792.7524,-157"/>
<polygon fill="#000000" stroke="#000000" points="792.7525,-153.5001 782.7524,-157 792.7524,-160.5001 792.7525,-153.5001"/>
</g>
<!-- CourseModule -->
<g id="node7" class="node">
<title>CourseModule</title>
<polygon fill="#8dd3c7" stroke="#000000" points="855.7064,-122 852.7064,-126 831.7064,-126 828.7064,-122 756.2936,-122 756.2936,-86 855.7064,-86 855.7064,-122"/>
<text text-anchor="middle" x="806" y="-99.8" font-family="Times,serif" font-size="14.00" fill="#000000">CourseModule</text>
</g>
<!-- CourseModule&#45;&gt;AppModule -->
<g id="edge6" class="edge">
<title>CourseModule&#45;&gt;AppModule</title>
<path fill="none" stroke="#000000" d="M769.6126,-122.1061C769.6126,-122.1061 769.6126,-140.991 769.6126,-140.991"/>
<polygon fill="#000000" stroke="#000000" points="766.1126,-140.9909 769.6126,-150.991 773.1126,-140.991 766.1126,-140.9909"/>
</g>
<!-- DailyBreadModule -->
<g id="node8" class="node">
<title>DailyBreadModule</title>
<polygon fill="#8dd3c7" stroke="#000000" points="738.0786,-122 735.0786,-126 714.0786,-126 711.0786,-122 613.9214,-122 613.9214,-86 738.0786,-86 738.0786,-122"/>
<text text-anchor="middle" x="676" y="-99.8" font-family="Times,serif" font-size="14.00" fill="#000000">DailyBreadModule</text>
</g>
<!-- DailyBreadModule&#45;&gt;AppModule -->
<g id="edge7" class="edge">
<title>DailyBreadModule&#45;&gt;AppModule</title>
<path fill="none" stroke="#000000" d="M718.6056,-122.1061C718.6056,-122.1061 718.6056,-140.991 718.6056,-140.991"/>
<polygon fill="#000000" stroke="#000000" points="715.1056,-140.9909 718.6056,-150.991 722.1056,-140.991 715.1056,-140.9909"/>
</g>
<!-- GeneralModule -->
<g id="node9" class="node">
<title>GeneralModule</title>
<polygon fill="#8dd3c7" stroke="#000000" points="595.8515,-122 592.8515,-126 571.8515,-126 568.8515,-122 492.1485,-122 492.1485,-86 595.8515,-86 595.8515,-122"/>
<text text-anchor="middle" x="544" y="-99.8" font-family="Times,serif" font-size="14.00" fill="#000000">GeneralModule</text>
</g>
<!-- GeneralModule&#45;&gt;AppModule -->
<g id="edge8" class="edge">
<title>GeneralModule&#45;&gt;AppModule</title>
<path fill="none" stroke="#000000" d="M544,-122.2396C544,-137.5706 544,-157 544,-157 544,-157 689.2214,-157 689.2214,-157"/>
<polygon fill="#000000" stroke="#000000" points="689.2214,-160.5001 699.2214,-157 689.2213,-153.5001 689.2214,-160.5001"/>
</g>
<!-- HomeModule -->
<g id="node10" class="node">
<title>HomeModule</title>
<polygon fill="#8dd3c7" stroke="#000000" points="473.7619,-122 470.7619,-126 449.7619,-126 446.7619,-122 380.2381,-122 380.2381,-86 473.7619,-86 473.7619,-122"/>
<text text-anchor="middle" x="427" y="-99.8" font-family="Times,serif" font-size="14.00" fill="#000000">HomeModule</text>
</g>
<!-- HomeModule&#45;&gt;AppModule -->
<g id="edge9" class="edge">
<title>HomeModule&#45;&gt;AppModule</title>
<path fill="none" stroke="#000000" d="M427,-122.0225C427,-139.3734 427,-163 427,-163 427,-163 689.3032,-163 689.3032,-163"/>
<polygon fill="#000000" stroke="#000000" points="689.3033,-166.5001 699.3032,-163 689.3032,-159.5001 689.3033,-166.5001"/>
</g>
<!-- MessageModule -->
<g id="node11" class="node">
<title>MessageModule</title>
<polygon fill="#8dd3c7" stroke="#000000" points="362.0284,-122 359.0284,-126 338.0284,-126 335.0284,-122 253.9716,-122 253.9716,-86 362.0284,-86 362.0284,-122"/>
<text text-anchor="middle" x="308" y="-99.8" font-family="Times,serif" font-size="14.00" fill="#000000">MessageModule</text>
</g>
<!-- MessageModule&#45;&gt;AppModule -->
<g id="edge10" class="edge">
<title>MessageModule&#45;&gt;AppModule</title>
<path fill="none" stroke="#000000" d="M308,-122.1061C308,-141.3391 308,-169 308,-169 308,-169 689.0887,-169 689.0887,-169"/>
<polygon fill="#000000" stroke="#000000" points="689.0887,-172.5001 699.0887,-169 689.0887,-165.5001 689.0887,-172.5001"/>
</g>
<!-- PrayerModule -->
<g id="node12" class="node">
<title>PrayerModule</title>
<polygon fill="#8dd3c7" stroke="#000000" points="236.0828,-122 233.0828,-126 212.0828,-126 209.0828,-122 139.9172,-122 139.9172,-86 236.0828,-86 236.0828,-122"/>
<text text-anchor="middle" x="188" y="-99.8" font-family="Times,serif" font-size="14.00" fill="#000000">PrayerModule</text>
</g>
<!-- PrayerModule&#45;&gt;AppModule -->
<g id="edge11" class="edge">
<title>PrayerModule&#45;&gt;AppModule</title>
<path fill="none" stroke="#000000" d="M188,-122.2843C188,-143.3211 188,-175 188,-175 188,-175 688.9812,-175 688.9812,-175"/>
<polygon fill="#000000" stroke="#000000" points="688.9813,-178.5001 698.9812,-175 688.9812,-171.5001 688.9813,-178.5001"/>
</g>
<!-- SharedModule -->
<g id="node13" class="node">
<title>SharedModule</title>
<polygon fill="#8dd3c7" stroke="#000000" points="122.4231,-122 119.4231,-126 98.4231,-126 95.4231,-122 23.5769,-122 23.5769,-86 122.4231,-86 122.4231,-122"/>
<text text-anchor="middle" x="73" y="-99.8" font-family="Times,serif" font-size="14.00" fill="#000000">SharedModule</text>
</g>
<!-- SharedModule&#45;&gt;AppModule -->
<g id="edge12" class="edge">
<title>SharedModule&#45;&gt;AppModule</title>
<path fill="none" stroke="#000000" d="M73,-122.2479C73,-145.0179 73,-181 73,-181 73,-181 689.2136,-181 689.2136,-181"/>
<polygon fill="#000000" stroke="#000000" points="689.2136,-184.5001 699.2136,-181 689.2136,-177.5001 689.2136,-184.5001"/>
</g>
</g>
</svg>
