<?xml version="1.0" encoding="UTF-8" standalone="no"?>
<!DOCTYPE svg PUBLIC "-//W3C//DTD SVG 1.1//EN"
 "http://www.w3.org/Graphics/SVG/1.1/DTD/svg11.dtd">
<!-- Generated by graphviz version 2.40.1 (20161225.0304)
 -->
<!-- Title: dependencies Pages: 1 -->
<svg width="504pt" height="211pt"
 viewBox="0.00 0.00 504.00 211.00" xmlns="http://www.w3.org/2000/svg" xmlns:xlink="http://www.w3.org/1999/xlink">
<g id="graph0" class="graph" transform="scale(1 1) rotate(0) translate(4 207)">
<title>dependencies</title>
<polygon fill="#ffffff" stroke="transparent" points="-4,4 -4,-207 500,-207 500,4 -4,4"/>
<text text-anchor="start" x="227.0091" y="-42.4" font-family="sans-serif" font-weight="bold" font-size="14.00" fill="#000000">Legend</text>
<polygon fill="#ffffb3" stroke="transparent" points="14,-10 14,-30 34,-30 34,-10 14,-10"/>
<text text-anchor="start" x="37.629" y="-15.4" font-family="sans-serif" font-size="14.00" fill="#000000"> &#160;Declarations</text>
<polygon fill="#8dd3c7" stroke="transparent" points="127,-10 127,-30 147,-30 147,-10 127,-10"/>
<text text-anchor="start" x="150.7251" y="-15.4" font-family="sans-serif" font-size="14.00" fill="#000000"> &#160;Module</text>
<polygon fill="#80b1d3" stroke="transparent" points="213,-10 213,-30 233,-30 233,-10 213,-10"/>
<text text-anchor="start" x="236.7812" y="-15.4" font-family="sans-serif" font-size="14.00" fill="#000000"> &#160;Bootstrap</text>
<polygon fill="#fdb462" stroke="transparent" points="310,-10 310,-30 330,-30 330,-10 310,-10"/>
<text text-anchor="start" x="333.6732" y="-15.4" font-family="sans-serif" font-size="14.00" fill="#000000"> &#160;Providers</text>
<polygon fill="#fb8072" stroke="transparent" points="406,-10 406,-30 426,-30 426,-10 406,-10"/>
<text text-anchor="start" x="429.7258" y="-15.4" font-family="sans-serif" font-size="14.00" fill="#000000"> &#160;Exports</text>
<g id="clust1" class="cluster">
<title>cluster_GeneralModule</title>
<polygon fill="none" stroke="#000000" stroke-dasharray="1,5" points="72,-70 72,-195 424,-195 424,-70 72,-70"/>
</g>
<g id="clust2" class="cluster">
<title>cluster_GeneralModule_declarations</title>
<polygon fill="none" stroke="#000000" points="252,-78 252,-130 416,-130 416,-78 252,-78"/>
</g>
<g id="clust4" class="cluster">
<title>cluster_GeneralModule_imports</title>
<polygon fill="none" stroke="#000000" points="80,-78 80,-130 244,-130 244,-78 80,-78"/>
</g>
<!-- InvalidPageComponent -->
<g id="node1" class="node">
<title>InvalidPageComponent</title>
<polygon fill="#ffffb3" stroke="#000000" points="408.2007,-122 259.7993,-122 259.7993,-86 408.2007,-86 408.2007,-122"/>
<text text-anchor="middle" x="334" y="-99.8" font-family="Times,serif" font-size="14.00" fill="#000000">InvalidPageComponent</text>
</g>
<!-- GeneralModule -->
<g id="node2" class="node">
<title>GeneralModule</title>
<polygon fill="#8dd3c7" stroke="#000000" points="299.8515,-187 296.8515,-191 275.8515,-191 272.8515,-187 196.1485,-187 196.1485,-151 299.8515,-151 299.8515,-187"/>
<text text-anchor="middle" x="248" y="-164.8" font-family="Times,serif" font-size="14.00" fill="#000000">GeneralModule</text>
</g>
<!-- InvalidPageComponent&#45;&gt;GeneralModule -->
<g id="edge1" class="edge">
<title>InvalidPageComponent&#45;&gt;GeneralModule</title>
<path fill="none" stroke="#000000" d="M279.9127,-122.1061C279.9127,-122.1061 279.9127,-140.991 279.9127,-140.991"/>
<polygon fill="#000000" stroke="#000000" points="276.4128,-140.9909 279.9127,-150.991 283.4128,-140.991 276.4128,-140.9909"/>
</g>
<!-- GeneralRoutingModule -->
<g id="node3" class="node">
<title>GeneralRoutingModule</title>
<polygon fill="#8dd3c7" stroke="#000000" points="236.4692,-122 233.4692,-126 212.4692,-126 209.4692,-122 87.5308,-122 87.5308,-86 236.4692,-86 236.4692,-122"/>
<text text-anchor="middle" x="162" y="-99.8" font-family="Times,serif" font-size="14.00" fill="#000000">GeneralRoutingModule</text>
</g>
<!-- GeneralRoutingModule&#45;&gt;GeneralModule -->
<g id="edge2" class="edge">
<title>GeneralRoutingModule&#45;&gt;GeneralModule</title>
<path fill="none" stroke="#000000" d="M216.2795,-122.1061C216.2795,-122.1061 216.2795,-140.991 216.2795,-140.991"/>
<polygon fill="#000000" stroke="#000000" points="212.7795,-140.9909 216.2795,-150.991 219.7795,-140.991 212.7795,-140.9909"/>
</g>
</g>
</svg>
