<?xml version="1.0" encoding="UTF-8" standalone="no"?>
<!DOCTYPE svg PUBLIC "-//W3C//DTD SVG 1.1//EN"
 "http://www.w3.org/Graphics/SVG/1.1/DTD/svg11.dtd">
<!-- Generated by graphviz version 2.40.1 (20161225.0304)
 -->
<!-- Title: dependencies Pages: 1 -->
<svg width="516pt" height="211pt"
 viewBox="0.00 0.00 516.00 211.00" xmlns="http://www.w3.org/2000/svg" xmlns:xlink="http://www.w3.org/1999/xlink">
<g id="graph0" class="graph" transform="scale(1 1) rotate(0) translate(4 207)">
<title>dependencies</title>
<polygon fill="#ffffff" stroke="transparent" points="-4,4 -4,-207 512,-207 512,4 -4,4"/>
<text text-anchor="start" x="233.0091" y="-42.4" font-family="sans-serif" font-weight="bold" font-size="14.00" fill="#000000">Legend</text>
<polygon fill="#ffffb3" stroke="transparent" points="20,-10 20,-30 40,-30 40,-10 20,-10"/>
<text text-anchor="start" x="43.629" y="-15.4" font-family="sans-serif" font-size="14.00" fill="#000000"> &#160;Declarations</text>
<polygon fill="#8dd3c7" stroke="transparent" points="133,-10 133,-30 153,-30 153,-10 133,-10"/>
<text text-anchor="start" x="156.7251" y="-15.4" font-family="sans-serif" font-size="14.00" fill="#000000"> &#160;Module</text>
<polygon fill="#80b1d3" stroke="transparent" points="219,-10 219,-30 239,-30 239,-10 219,-10"/>
<text text-anchor="start" x="242.7812" y="-15.4" font-family="sans-serif" font-size="14.00" fill="#000000"> &#160;Bootstrap</text>
<polygon fill="#fdb462" stroke="transparent" points="316,-10 316,-30 336,-30 336,-10 316,-10"/>
<text text-anchor="start" x="339.6732" y="-15.4" font-family="sans-serif" font-size="14.00" fill="#000000"> &#160;Providers</text>
<polygon fill="#fb8072" stroke="transparent" points="412,-10 412,-30 432,-30 432,-10 412,-10"/>
<text text-anchor="start" x="435.7258" y="-15.4" font-family="sans-serif" font-size="14.00" fill="#000000"> &#160;Exports</text>
<g id="clust1" class="cluster">
<title>cluster_PrayerModule</title>
<polygon fill="none" stroke="#000000" stroke-dasharray="1,5" points="8,-70 8,-195 500,-195 500,-70 8,-70"/>
</g>
<g id="clust2" class="cluster">
<title>cluster_PrayerModule_declarations</title>
<polygon fill="none" stroke="#000000" points="182,-78 182,-130 492,-130 492,-78 182,-78"/>
</g>
<g id="clust5" class="cluster">
<title>cluster_PrayerModule_imports</title>
<polygon fill="none" stroke="#000000" points="16,-78 16,-130 174,-130 174,-78 16,-78"/>
</g>
<!-- PrayerDetailComponent -->
<g id="node1" class="node">
<title>PrayerDetailComponent</title>
<polygon fill="#ffffb3" stroke="#000000" points="484.073,-122 331.927,-122 331.927,-86 484.073,-86 484.073,-122"/>
<text text-anchor="middle" x="408" y="-99.8" font-family="Times,serif" font-size="14.00" fill="#000000">PrayerDetailComponent</text>
</g>
<!-- PrayerModule -->
<g id="node3" class="node">
<title>PrayerModule</title>
<polygon fill="#8dd3c7" stroke="#000000" points="300.0828,-187 297.0828,-191 276.0828,-191 273.0828,-187 203.9172,-187 203.9172,-151 300.0828,-151 300.0828,-187"/>
<text text-anchor="middle" x="252" y="-164.8" font-family="Times,serif" font-size="14.00" fill="#000000">PrayerModule</text>
</g>
<!-- PrayerDetailComponent&#45;&gt;PrayerModule -->
<g id="edge1" class="edge">
<title>PrayerDetailComponent&#45;&gt;PrayerModule</title>
<path fill="none" stroke="#000000" d="M408,-122.1061C408,-141.3391 408,-169 408,-169 408,-169 310.0781,-169 310.0781,-169"/>
<polygon fill="#000000" stroke="#000000" points="310.0781,-165.5001 300.0781,-169 310.078,-172.5001 310.0781,-165.5001"/>
</g>
<!-- PrayersComponent -->
<g id="node2" class="node">
<title>PrayersComponent</title>
<polygon fill="#ffffb3" stroke="#000000" points="313.8104,-122 190.1896,-122 190.1896,-86 313.8104,-86 313.8104,-122"/>
<text text-anchor="middle" x="252" y="-99.8" font-family="Times,serif" font-size="14.00" fill="#000000">PrayersComponent</text>
</g>
<!-- PrayersComponent&#45;&gt;PrayerModule -->
<g id="edge2" class="edge">
<title>PrayersComponent&#45;&gt;PrayerModule</title>
<path fill="none" stroke="#000000" d="M252,-122.1061C252,-122.1061 252,-140.991 252,-140.991"/>
<polygon fill="#000000" stroke="#000000" points="248.5001,-140.9909 252,-150.991 255.5001,-140.991 248.5001,-140.9909"/>
</g>
<!-- PrayerRoutingModule -->
<g id="node4" class="node">
<title>PrayerRoutingModule</title>
<polygon fill="#8dd3c7" stroke="#000000" points="165.7007,-122 162.7007,-126 141.7007,-126 138.7007,-122 24.2993,-122 24.2993,-86 165.7007,-86 165.7007,-122"/>
<text text-anchor="middle" x="95" y="-99.8" font-family="Times,serif" font-size="14.00" fill="#000000">PrayerRoutingModule</text>
</g>
<!-- PrayerRoutingModule&#45;&gt;PrayerModule -->
<g id="edge3" class="edge">
<title>PrayerRoutingModule&#45;&gt;PrayerModule</title>
<path fill="none" stroke="#000000" d="M95,-122.1061C95,-141.3391 95,-169 95,-169 95,-169 193.6138,-169 193.6138,-169"/>
<polygon fill="#000000" stroke="#000000" points="193.6138,-172.5001 203.6138,-169 193.6137,-165.5001 193.6138,-172.5001"/>
</g>
</g>
</svg>
